<svg width="22" height="22" viewBox="0 0 22 22" fill="none" xmlns="http://www.w3.org/2000/svg">
    <mask id="mask0_33437_4385" style="mask-type:luminance" maskUnits="userSpaceOnUse" x="0" y="0" width="22" height="22">
        <path fill-rule="evenodd" clip-rule="evenodd" d="M0 0.000244141H21.493V21.494H0V0.000244141Z" fill="white"/>
    </mask>
    <g mask="url(#mask0_33437_4385)">
        <path fill-rule="evenodd" clip-rule="evenodd" d="M5.10844 18.6752C5.68844 18.6752 6.23544 18.8952 6.81444 19.1282C10.3614 20.7682 14.5564 20.0222 17.2894 17.2902C20.8954 13.6822 20.8954 7.81324 17.2894 4.20724C15.5434 2.46124 13.2214 1.50024 10.7494 1.50024C8.27644 1.50024 5.95344 2.46224 4.20844 4.20824C1.47444 6.94024 0.730437 11.1352 2.35544 14.6482C2.58944 15.2272 2.81544 15.7912 2.81544 16.3772C2.81544 16.9622 2.61444 17.5512 2.43744 18.0712C2.29144 18.4992 2.07044 19.1452 2.21244 19.2872C2.35144 19.4312 3.00144 19.2042 3.43044 19.0572C3.94544 18.8812 4.52944 18.6792 5.10844 18.6752ZM10.7244 21.4942C9.19644 21.4942 7.65844 21.1712 6.21944 20.5052C5.79544 20.3352 5.39844 20.1752 5.11344 20.1752C4.78544 20.1772 4.34444 20.3292 3.91844 20.4762C3.04444 20.7762 1.95644 21.1502 1.15144 20.3482C0.349437 19.5452 0.719437 18.4602 1.01744 17.5872C1.16444 17.1572 1.31544 16.7132 1.31544 16.3772C1.31544 16.1012 1.18244 15.7492 0.978437 15.2422C-0.894563 11.1972 -0.0285628 6.32224 3.14844 3.14724C5.17644 1.11824 7.87544 0.000244141 10.7484 0.000244141C13.6214 0.000244141 16.3214 1.11724 18.3494 3.14624C22.5414 7.33824 22.5414 14.1582 18.3494 18.3502C16.2944 20.4062 13.5274 21.4942 10.7244 21.4942Z" fill="black"/>
    </g>
    <path fill-rule="evenodd" clip-rule="evenodd" d="M14.6964 12.163C14.1444 12.163 13.6924 11.716 13.6924 11.163C13.6924 10.61 14.1354 10.163 14.6874 10.163H14.6964C15.2484 10.163 15.6964 10.61 15.6964 11.163C15.6964 11.716 15.2484 12.163 14.6964 12.163Z" fill="black"/>
    <path fill-rule="evenodd" clip-rule="evenodd" d="M10.6876 12.163C10.1356 12.163 9.68359 11.716 9.68359 11.163C9.68359 10.61 10.1256 10.163 10.6786 10.163H10.6876C11.2396 10.163 11.6876 10.61 11.6876 11.163C11.6876 11.716 11.2396 12.163 10.6876 12.163Z" fill="black"/>
    <path fill-rule="evenodd" clip-rule="evenodd" d="M6.67832 12.163C6.12632 12.163 5.67432 11.716 5.67432 11.163C5.67432 10.61 6.11732 10.163 6.66932 10.163H6.67832C7.23032 10.163 7.67832 10.61 7.67832 11.163C7.67832 11.716 7.23032 12.163 6.67832 12.163Z" fill="black"/>
</svg>
