<svg width="20" height="20" viewBox="0 0 20 20" fill="none" xmlns="http://www.w3.org/2000/svg">
    <path fill-rule="evenodd" clip-rule="evenodd" d="M19.2948 19.0594L18.2165 15.0379C18.1546 14.8125 18.1856 14.5695 18.2916 14.3573C19.2329 12.4703 19.5467 10.2165 18.9678 7.86549C18.1811 4.68365 15.6975 2.12934 12.5245 1.28526C11.6584 1.05988 10.8055 0.949402 9.97906 0.949402C4.04846 0.949402 -0.582892 6.51321 1.01687 12.7045C1.7593 15.5682 4.8174 18.5335 7.69432 19.2317C8.4721 19.4218 9.23663 19.5102 9.97906 19.5102C11.5744 19.5102 13.0681 19.0992 14.3806 18.3921C14.5264 18.3125 14.69 18.2684 14.849 18.2684C14.9286 18.2684 15.0081 18.2772 15.0877 18.2993L19.0031 19.3466C19.0252 19.3511 19.0473 19.3555 19.065 19.3555C19.2152 19.3555 19.3346 19.2141 19.2948 19.0594ZM16.9791 15.3693L17.589 17.6452L15.4191 17.0663C15.2335 17.0177 15.0435 16.9912 14.849 16.9912C14.4778 16.9912 14.1022 17.0884 13.7663 17.2696C12.5864 17.906 11.3137 18.2286 9.97906 18.2286C9.3206 18.2286 8.65329 18.1446 7.99483 17.9855C5.55983 17.3933 2.87736 14.7772 2.25867 12.3819C1.61346 9.88066 2.12167 7.31309 3.65073 5.33769C5.17978 3.3623 7.48662 2.23098 9.97906 2.23098C10.7127 2.23098 11.4595 2.3282 12.1975 2.52707C14.9242 3.25182 17.041 5.41724 17.726 8.17484C18.2077 10.1193 18.0088 12.0593 17.147 13.7873C16.8996 14.2822 16.8377 14.8435 16.9791 15.3693Z" fill="#333333"/>
</svg>
