<svg width="19" height="19" viewBox="0 0 19 19" fill="none" xmlns="http://www.w3.org/2000/svg">
    <path d="M1.73077 9.71922L9.6179 1.74731L13.542 5.71357L17.505 9.71922C17.7395 9.95625 17.8711 10.276 17.8711 10.6132V16.8381C17.8711 17.0746 17.6813 17.2532 17.4695 17.2532H12.9249C12.7214 17.2532 12.5398 17.0829 12.5398 16.8548V13.0897C12.5398 11.4729 11.2396 10.1456 9.6179 10.1456C7.99617 10.1456 6.69596 11.4729 6.69596 13.0897V16.8548C6.69596 17.0829 6.51443 17.2532 6.31088 17.2532H1.76631C1.55448 17.2532 1.36467 17.0746 1.36467 16.8381V10.6132C1.36467 10.276 1.49625 9.95625 1.73077 9.71922Z" fill="white" stroke="#333333" stroke-width="1.70493"/>
</svg>
