<svg width="96" height="28" viewBox="0 0 96 28" fill="none" xmlns="http://www.w3.org/2000/svg">
    <path
        d="M5.77131 0.89298C3.82608 1.70723 1.68762 4.00758 1.01222 6.89502C0.156887 10.5535 3.71634 12.1006 4.00829 11.5933C4.35191 10.9973 3.37047 10.7957 3.16845 8.89752C2.90736 6.44584 4.04714 3.70636 5.4816 2.50435C5.74824 2.28103 5.73555 2.59186 5.73555 3.16679C5.73555 4.1949 5.67875 13.4243 5.67875 15.3505C5.67875 17.9569 5.57109 18.7799 5.37775 19.5932C5.18185 20.4174 4.86691 20.9743 5.10555 21.1888C5.37218 21.4287 6.51059 20.858 7.16963 19.9382C7.95991 18.835 8.23655 17.5101 8.28621 16.0714C8.3462 14.337 8.34365 11.5849 8.3462 10.0151C8.3486 8.57539 8.37045 4.35956 8.32097 1.82516C8.30883 1.20353 6.58491 0.552097 5.77131 0.89298ZM74.8465 13.0906C74.7838 14.4456 74.4838 15.5047 74.1116 16.2518C73.3909 17.698 71.8955 18.1471 71.2606 16.0681C70.9146 14.9348 70.8984 13.0421 71.1472 11.4606C71.4004 9.84959 72.1075 8.63287 73.2783 8.7426C74.4331 8.85107 74.9737 10.3392 74.8465 13.0906ZM55.3782 21.4973C55.3626 23.7487 55.0082 25.7228 54.2484 26.2961C53.1707 27.1091 51.7221 26.4992 52.0221 24.8564C52.2875 23.4026 53.5426 21.9179 55.3813 20.1038C55.3813 20.1038 55.3851 20.5175 55.3782 21.4973ZM55.0839 13.0775C55.018 14.3116 54.6981 15.5514 54.349 16.2519C53.6285 17.6982 52.1222 18.1503 51.498 16.0682C51.0712 14.6457 51.1734 12.8045 51.3846 11.6445C51.6586 10.1393 52.3228 8.74292 53.5157 8.74292C54.6755 8.74292 55.2474 10.0152 55.0839 13.0775ZM43.8059 13.0586C43.7352 14.3657 43.4802 15.4583 43.071 16.2519C42.3307 17.6882 40.866 18.1437 40.22 16.0682C39.7544 14.5716 39.9129 12.531 40.1066 11.4286C40.3941 9.7928 41.1139 8.63303 42.2377 8.74292C43.3921 8.8557 43.9532 10.3392 43.8059 13.0586ZM95.4904 14.5854C95.2082 14.5854 95.0794 14.8762 94.9729 15.3658C94.6033 17.0682 94.2149 17.4526 93.7141 17.4526C93.1545 17.4526 92.6517 16.6097 92.5224 14.9222C92.4209 13.5954 92.4372 11.1526 92.5671 8.72262C92.5936 8.22336 92.4559 7.72938 91.1168 7.24291C90.5406 7.03367 89.703 6.72557 89.2859 7.73226C88.1076 10.5763 87.6466 12.8343 87.5381 13.7516C87.5325 13.7991 87.4743 13.8087 87.4641 13.6978C87.3949 12.9632 87.2404 11.6281 87.2212 8.82325C87.2175 8.27599 87.1016 7.81016 86.4975 7.42879C86.1056 7.18133 84.9154 6.74365 84.4869 7.26434C84.1156 7.69019 83.6856 8.8362 83.2388 10.1947C82.8757 11.2988 82.6227 12.0457 82.6227 12.0457C82.6227 12.0457 82.6276 9.06656 82.6319 7.93653C82.6338 7.51022 82.3414 7.36817 82.2532 7.34241C81.8563 7.22723 81.0744 7.0348 80.7425 7.0348C80.3329 7.0348 80.2327 7.26371 80.2327 7.59725C80.2327 7.64091 80.168 11.5195 80.168 14.2316C80.168 14.3494 80.168 14.478 80.1692 14.6145C79.9427 15.861 79.2081 17.5531 78.4092 17.5531C77.6094 17.5531 77.232 16.8457 77.232 13.6125C77.232 11.7263 77.2887 10.9061 77.3165 9.54189C77.3326 8.75612 77.3639 8.15271 77.3621 8.01578C77.3562 7.59587 76.6301 7.38422 76.2922 7.30601C75.9528 7.22713 75.6578 7.19658 75.4274 7.20969C75.1014 7.22809 74.8707 7.44198 74.8707 7.73616C74.8707 7.89389 74.8725 8.19383 74.8725 8.19383C74.4526 7.53396 73.7772 7.07468 73.3279 6.94159C72.1175 6.58214 70.8546 6.90064 69.902 8.23367C69.1448 9.29282 68.6884 10.4924 68.5088 12.2159C68.3775 13.476 68.4203 14.7537 68.6537 15.8343C68.3717 17.0536 67.8481 17.5531 67.2748 17.5531C66.4425 17.5531 65.8391 16.1946 65.9091 13.8451C65.9554 12.2997 66.2646 11.2152 66.6026 9.64619C66.7467 8.97735 66.6296 8.62718 66.3359 8.29157C66.0665 7.98379 65.4926 7.82654 64.6675 8.01995C64.0797 8.15784 63.2394 8.30612 62.4706 8.42003C62.4706 8.42003 62.517 8.23494 62.5551 7.90861C62.755 6.19726 60.8954 6.33611 60.3021 6.88272C59.9479 7.20906 59.7068 7.59395 59.6153 8.28597C59.4702 9.38417 60.3659 9.90215 60.3659 9.90215C60.072 11.2473 59.3517 13.0046 58.608 14.2751C58.2097 14.9557 57.9049 15.4601 57.5116 15.9963C57.5101 15.7967 57.509 15.597 57.5083 15.3983C57.4993 12.5702 57.537 10.3444 57.5536 9.54216C57.5697 8.7564 57.6013 8.16899 57.5995 8.03206C57.5951 7.72492 57.4157 7.60894 57.0426 7.46208C56.7128 7.33219 56.3228 7.24229 55.9182 7.21093C55.4076 7.1711 55.1 7.44193 55.108 7.76219C55.1095 7.82265 55.1095 8.19395 55.1095 8.19395C54.6896 7.53407 54.0142 7.0748 53.5649 6.9417C52.3545 6.58241 51.0916 6.90091 50.139 8.23378C49.382 9.29293 48.8862 10.7792 48.7458 12.2029C48.6149 13.5299 48.6391 14.6575 48.8175 15.6074C48.625 16.5586 48.0717 17.5533 47.446 17.5533C46.6462 17.5533 46.1911 16.8458 46.1911 13.6126C46.1911 11.7264 46.2477 10.9062 46.2756 9.54216C46.2917 8.7564 46.3229 8.15283 46.3211 8.01606C46.3153 7.59614 45.5891 7.3845 45.2513 7.30612C44.8977 7.22437 44.5925 7.1943 44.3582 7.21157C44.0489 7.23461 43.8315 7.51152 43.8315 7.71804V8.19395C43.4116 7.53407 42.7362 7.0748 42.2869 6.9417C41.0766 6.58241 39.8206 6.90604 38.861 8.23378C38.2352 9.09953 37.7286 10.0593 37.4678 12.1841C37.3925 12.7981 37.3592 13.373 37.3635 13.9104C37.1139 15.4366 36.0118 17.1956 35.1102 17.1956C34.5826 17.1956 34.0801 16.1723 34.0801 13.9914C34.0801 11.0863 34.2599 6.95018 34.2903 6.55154C34.2903 6.55154 35.4295 6.53219 35.6501 6.52962C36.2183 6.52338 36.7329 6.53682 37.4897 6.49811C37.8693 6.47875 38.235 5.11645 37.8432 4.94785C37.6657 4.87154 36.4107 4.80468 35.9132 4.79412C35.4949 4.78464 34.3303 4.69846 34.3303 4.69846C34.3303 4.69846 34.4348 1.95306 34.4591 1.66304C34.4797 1.42133 34.167 1.29688 33.9877 1.22136C33.5516 1.03692 33.1614 0.948612 32.699 0.853272C32.06 0.721464 31.7702 0.850393 31.7136 1.38965C31.6283 2.20806 31.5841 4.60519 31.5841 4.60519C31.1153 4.60519 29.5136 4.51354 29.0446 4.51354C28.6089 4.51354 28.1386 6.38758 28.741 6.4106C29.4342 6.43748 30.6421 6.46068 31.4429 6.48484C31.4429 6.48484 31.4072 10.6891 31.4072 11.9871C31.4072 12.1252 31.4084 12.2582 31.4087 12.3872C30.9679 14.6844 29.4156 15.9253 29.4156 15.9253C29.749 14.4056 29.068 13.2644 27.8413 12.2983C27.3894 11.9423 26.4973 11.2684 25.4991 10.5298C25.4991 10.5298 26.0772 9.96003 26.5899 8.8137C26.9532 8.00169 26.9689 7.07243 26.0772 6.86752C24.6039 6.5287 23.3891 7.61072 23.0267 8.76587C22.746 9.66073 22.8957 10.3248 23.4457 11.0145C23.4859 11.0649 23.5294 11.1165 23.5743 11.1683C23.2417 11.8093 22.7849 12.6723 22.3979 13.3416C21.3239 15.1998 20.5125 16.6696 19.8993 16.6696C19.4092 16.6696 19.4158 15.1774 19.4158 13.7803C19.4158 12.5758 19.5047 10.765 19.5757 8.89016C19.5992 8.27012 19.2892 7.9169 18.7695 7.59697C18.4537 7.40261 17.7797 7.02044 17.3894 7.02044C16.8052 7.02044 15.1196 7.09994 13.527 11.7069C13.3263 12.2876 12.932 13.3456 12.932 13.3456L12.9659 7.80557C12.9659 7.67568 12.8967 7.5501 12.7383 7.46419C12.4699 7.31846 11.7531 7.02044 11.1157 7.02044C10.8121 7.02044 10.6605 7.1617 10.6605 7.44324L10.6049 16.1107C10.6049 16.7693 10.6221 17.5375 10.6872 17.8736C10.7521 18.21 10.8572 18.4837 10.9873 18.6465C11.1173 18.8091 11.2677 18.933 11.5155 18.9842C11.7462 19.0317 13.0096 19.1939 13.0752 18.7112C13.1539 18.1326 13.1569 17.5068 13.8203 15.1728C14.853 11.5391 16.1995 9.76615 16.8325 9.13651C16.9432 9.02646 17.0696 9.01989 17.0635 9.20001C17.0364 9.99667 16.9414 11.9873 16.8774 13.6785C16.706 18.2044 17.5293 19.0432 18.7059 19.0432C19.606 19.0432 20.8749 18.1488 22.2351 15.8848C23.0831 14.4739 23.9065 13.0905 24.4981 12.0934C24.9103 12.475 25.3729 12.8857 25.8352 13.3245C26.9096 14.3442 27.2623 15.3131 27.0283 16.2323C26.8493 16.935 26.1752 17.6591 24.9754 16.9553C24.6257 16.7499 24.4765 16.5913 24.1248 16.3598C23.9359 16.2354 23.6475 16.1982 23.4746 16.3285C23.0254 16.6672 22.7685 17.098 22.6218 17.6313C22.4791 18.1503 22.9988 18.4246 23.5376 18.6646C24.0015 18.8711 24.9986 19.0582 25.6345 19.0795C28.1121 19.1624 30.0968 17.8833 31.4785 14.5838C31.7258 17.4333 32.7784 19.0458 34.6072 19.0458C35.8298 19.0458 37.0556 17.4654 37.5917 15.9107C37.7456 16.5445 37.9734 17.0956 38.2676 17.5616C39.6767 19.7943 42.4104 19.3137 43.7836 17.4178C44.2082 16.832 44.2728 16.6215 44.2728 16.6215C44.4731 18.4117 45.9147 19.0372 46.7402 19.0372C47.6646 19.0372 48.6192 18.6001 49.2882 17.094C49.3666 17.2575 49.4521 17.4136 49.5456 17.5615C50.9547 19.7942 53.6884 19.3137 55.0616 17.4178C55.1264 17.3288 55.1826 17.2482 55.2317 17.1758L55.272 18.3516C55.272 18.3516 54.4886 19.0703 54.0077 19.5111C51.8913 21.4528 50.2821 22.926 50.1637 24.6415C50.0117 26.8289 51.7858 27.6419 53.1279 27.7484C54.5532 27.8615 55.7738 27.0742 56.5241 25.9723C57.1839 25.0024 57.6159 22.9149 57.5842 20.8532C57.5715 20.0277 57.5507 18.9779 57.5344 17.8527C58.2783 16.9889 59.1164 15.8971 59.8881 14.6191C60.729 13.2264 61.6303 11.356 62.0918 9.90048C62.0918 9.90048 62.8748 9.9072 63.7105 9.85249C63.9778 9.83505 64.0546 9.88959 64.0052 10.0856C63.9455 10.3223 62.9494 14.1645 63.8585 16.724C64.4808 18.4761 65.8835 19.0398 66.7152 19.0398C67.6888 19.0398 68.6201 18.3046 69.1192 17.2128C69.1794 17.3346 69.2422 17.4523 69.3109 17.5611C70.72 19.7938 73.4442 19.3103 74.8269 17.4173C75.139 16.9902 75.3161 16.6209 75.3161 16.6209C75.6129 18.4737 77.0537 19.0461 77.879 19.0461C78.7387 19.0461 79.5545 18.6936 80.2165 17.1274C80.2441 17.817 80.2876 18.3809 80.3564 18.5587C80.3983 18.6674 80.6426 18.8039 80.8203 18.8698C81.6067 19.1614 82.4088 19.0235 82.7056 18.9635C82.9111 18.9219 83.0714 18.757 83.0933 18.3312C83.1509 17.213 83.1156 15.3343 83.4546 13.9381C84.0236 11.5949 84.5543 10.6859 84.8061 10.2359C84.9471 9.98382 85.1061 9.94223 85.1118 10.2091C85.1237 10.749 85.1505 12.3344 85.371 14.4646C85.5329 16.0312 85.7491 16.9572 85.9153 17.2503C86.3897 18.0883 86.9755 18.128 87.4525 18.128C87.756 18.128 88.3906 18.0442 88.3338 17.5108C88.3061 17.2509 88.3546 15.6443 88.9156 13.3358C89.2819 11.8283 89.8927 10.4661 90.113 9.96813C90.1942 9.78449 90.232 9.92925 90.2307 9.95745C90.1843 10.9957 90.0802 14.3915 90.5031 16.2487C91.0764 18.7647 92.735 19.0463 93.313 19.0463C94.5468 19.0463 95.5559 18.1077 95.8958 15.6381C95.9777 15.0438 95.8565 14.5849 95.4932 14.5849"
        fill="#262626" />
</svg>
