<svg width="20" height="18" viewBox="0 0 20 18" fill="none" xmlns="http://www.w3.org/2000/svg">
    <path d="M9.99939 17.7236C9.62918 17.7236 9.27579 17.6079 8.9771 17.3889C6.94934 15.9055 2.10293 12.2156 0.887119 9.9802C-0.703112 7.05888 0.251868 3.30703 3.01163 1.61704C3.90351 1.07162 4.91318 0.782379 5.93968 0.782379C7.47522 0.782379 8.9182 1.40218 9.99939 2.50542C11.0806 1.40218 12.5236 0.782379 14.0591 0.782379C15.0856 0.782379 16.0953 1.07162 16.9871 1.61704C19.7469 3.30703 20.7019 7.05888 19.1159 9.9802C17.9001 12.2156 13.0536 15.9055 11.0259 17.3889C10.723 17.6079 10.3696 17.7236 9.99939 17.7236ZM5.93968 2.02198C5.14877 2.02198 4.37048 2.2451 3.68054 2.66657C1.47189 4.02186 0.714633 7.03822 1.99776 9.39345C3.12522 11.4677 8.19881 15.2774 9.72594 16.3931C9.8858 16.5087 10.1088 16.5087 10.2686 16.3931C11.7958 15.2733 16.8694 11.4636 17.9968 9.39345C19.2799 7.03822 18.5227 4.01773 16.314 2.66657C15.6283 2.2451 14.85 2.02198 14.0591 2.02198C12.675 2.02198 11.3793 2.6831 10.5042 3.83179L9.99939 4.50117L9.49455 3.83179C8.61951 2.6831 7.32797 2.02198 5.93968 2.02198Z" fill="#333333"/>
</svg>
