<svg width="20" height="19" viewBox="0 0 20 19" fill="none" xmlns="http://www.w3.org/2000/svg">
    <path fill-rule="evenodd" clip-rule="evenodd" d="M18.6258 18.3153C18.7915 18.1512 18.792 17.8835 18.6268 17.7188L14.895 13.9984C16.1659 12.5845 16.9444 10.7259 16.9444 8.67859C16.9444 4.27761 13.3633 0.707321 8.94885 0.707321C4.53443 0.707321 0.953247 4.27761 0.953247 8.67859C0.953247 13.0796 4.53443 16.6499 8.94885 16.6499C11.0109 16.6499 12.8793 15.8653 14.2975 14.5899L18.0332 18.3142C18.1968 18.4774 18.4615 18.4779 18.6258 18.3153ZM1.79489 8.67859C1.79489 4.7475 5.00575 1.5464 8.94885 1.5464C12.8919 1.5464 16.1028 4.7475 16.1028 8.67859C16.1028 12.6097 12.8919 15.8108 8.94885 15.8108C5.00575 15.8108 1.79489 12.6097 1.79489 8.67859Z" fill="#333333" stroke="#333333" stroke-width="0.852466" stroke-linecap="round" stroke-linejoin="round"/>
</svg>
