<svg width="18" height="16" viewBox="0 0 18 16" fill="none" xmlns="http://www.w3.org/2000/svg">
    <path fill-rule="evenodd" clip-rule="evenodd"
        d="M17.3974 1.30308C17.2212 0.993488 16.8897 0.814392 16.5415 0.814392L1.46486 0.825346C1.04498 0.825385 0.680967 1.08469 0.535447 1.47108L0.535309 1.47144C0.430549 1.7508 0.454039 2.05557 0.597879 2.30729L0.599888 2.3108L0.602 2.31426C0.656133 2.40284 0.724873 2.48628 0.808135 2.55975L6.54683 7.50851L7.94558 14.9385L7.94567 14.9389C8.0221 15.3506 8.34077 15.6572 8.75385 15.7226C9.1627 15.788 9.56517 15.5955 9.77527 15.2403L9.77561 15.2397L17.3921 2.29237L17.223 1.99848C17.223 1.99836 17.2231 1.99824 17.2231 1.99812L17.3923 2.29203C17.5737 1.98436 17.5748 1.60841 17.3974 1.30308ZM16.7115 1.10961L16.5415 0.814392L16.7114 1.10958C16.7114 1.10959 16.7115 1.1096 16.7115 1.10961ZM7.40919 6.06682L3.23169 2.46067H13.7285L7.40919 6.06682ZM9.24232 12.8968L8.224 7.4866L14.5557 3.87561L9.24232 12.8968Z"
        fill="#333333" />
</svg>
